<svg width="40" height="40" viewBox="0 0 40 40" fill="none" xmlns="http://www.w3.org/2000/svg">
<path d="M12.35 39.95C11.35 39.95 10.5 39.6 9.80005 38.9C9.10005 38.2 8.75005 37.35 8.75005 36.35C8.75005 35.35 9.10005 34.5 9.80005 33.8C10.5 33.1 11.35 32.75 12.35 32.75C13.35 32.75 14.2 33.1 14.9 33.8C15.6 34.5 15.95 35.35 15.95 36.35C15.95 37.35 15.6 38.2 14.9 38.9C14.2 39.6 13.35 39.95 12.35 39.95ZM32.35 39.95C31.35 39.95 30.5 39.6 29.8 38.9C29.1 38.2 28.75 37.35 28.75 36.35C28.75 35.35 29.1 34.5 29.8 33.8C30.5 33.1 31.35 32.75 32.35 32.75C33.35 32.75 34.2001 33.1 34.9001 33.8C35.6001 34.5 35.9501 35.35 35.9501 36.35C35.9501 37.35 35.6001 38.2 34.9001 38.9C34.2001 39.6 33.35 39.95 32.35 39.95ZM9.75005 6.95L15.25 18.35H29.65L35.9001 6.95H9.75005ZM8.25005 3.95H37.7001C38.4667 3.95 39.05 4.3 39.4501 5C39.8501 5.7 39.8501 6.4 39.4501 7.1L32.7001 19.25C32.3334 19.8833 31.8584 20.3917 31.2751 20.775C30.6917 21.1583 30.0501 21.35 29.35 21.35H14.2L11.4 26.55H35.9501V29.55H11.85C10.45 29.55 9.44172 29.0833 8.82505 28.15C8.20838 27.2167 8.21672 26.1667 8.85005 25L12.05 19.1L4.45005 3H0.550049V0H6.40005L8.25005 3.95ZM15.25 18.35H29.65H15.25Z" fill="#2E001C"/>
</svg>
