<svg width="242" height="84" viewBox="0 0 242 84" fill="none" xmlns="http://www.w3.org/2000/svg">
<path d="M55.288 62.888C52.6 62.888 49.8907 62.5467 47.16 61.864C44.472 61.1813 41.784 60.3067 39.096 59.24C36.4507 58.1733 33.848 57.0427 31.288 55.848C28.7707 54.6533 26.3173 53.5653 23.928 52.584C22.7333 53.8213 21.368 55.0373 19.832 56.232C18.296 57.4267 16.632 58.408 14.84 59.176C13.048 59.944 11.1493 60.328 9.14403 60.328C7.6507 60.328 6.2427 60.072 4.92003 59.56C3.59736 59.0907 2.5307 58.3653 1.72003 57.384C0.909361 56.4027 0.504028 55.2293 0.504028 53.864C0.504028 52.2853 0.994695 51.0053 1.97603 50.024C2.9147 49 4.10936 48.2533 5.56003 47.784C7.05336 47.272 8.58936 47.016 10.168 47.016C12.3013 47.016 14.5627 47.3573 16.952 48.04C19.3413 48.7227 21.5173 49.4267 23.48 50.152C24.7173 48.6587 25.8693 47.1227 26.936 45.544C28.0453 43.9653 29.0693 42.3653 30.008 40.744C26.8507 40.4027 24.2053 39.464 22.072 37.928C19.9813 36.392 18.936 34.152 18.936 31.208C18.936 29.0747 19.5547 27.048 20.792 25.128C22.072 23.1653 23.8 21.6507 25.976 20.584C26.5733 20.2853 27.2987 20.008 28.152 19.752C29.0053 19.4533 29.752 19.304 30.392 19.304C31.0747 19.304 31.416 19.6027 31.416 20.2C31.416 20.712 31.1173 21.032 30.52 21.16C29.9227 21.3307 29.3253 21.48 28.728 21.608C28.1733 21.6933 27.5973 21.8853 27 22.184C25.1653 23.0373 23.672 24.3173 22.52 26.024C21.4107 27.688 20.856 29.4373 20.856 31.272C20.856 33.064 21.3467 34.4933 22.328 35.56C23.3093 36.6267 24.568 37.416 26.104 37.928C27.6827 38.3973 29.368 38.7173 31.16 38.888C32.824 35.7733 34.5307 32.6587 36.28 29.544C38.072 26.4293 40.0133 23.4213 42.104 20.52C42.7013 19.6667 43.448 18.728 44.344 17.704C45.24 16.6373 46.2427 15.6133 47.352 14.632C48.504 13.6507 49.6987 12.8613 50.936 12.264C52.1733 11.624 53.432 11.304 54.712 11.304C56.7173 11.304 58.2107 11.8587 59.192 12.968C60.1733 14.0347 60.664 15.3787 60.664 17C60.664 18.792 60.2373 20.648 59.384 22.568C58.5307 24.488 57.4427 26.3227 56.12 28.072C54.84 29.7787 53.5173 31.272 52.152 32.552C49.6773 34.8987 46.7333 36.8613 43.32 38.44C39.9067 40.0187 36.3227 40.808 32.568 40.808C31.5013 42.5573 30.392 44.2853 29.24 45.992C28.088 47.6987 26.8293 49.3413 25.464 50.92C27.7253 51.944 30.0507 53.032 32.44 54.184C34.8293 55.336 37.2827 56.424 39.8 57.448C42.3173 58.5147 44.8773 59.368 47.48 60.008C50.0827 60.6907 52.6853 61.032 55.288 61.032C56.4827 61.032 57.6987 60.8613 58.936 60.52C60.216 60.2213 61.304 59.7307 62.2 59.048C62.4133 58.8347 62.6693 58.728 62.968 58.728C63.2667 58.728 63.5227 58.8133 63.736 58.984C63.9493 59.1973 64.056 59.4107 64.056 59.624C64.056 59.8373 63.9493 60.0507 63.736 60.264C63.224 60.7333 62.52 61.16 61.624 61.544C60.7707 61.9707 59.8747 62.2907 58.936 62.504C57.9973 62.76 57.1653 62.888 56.44 62.888H55.288ZM33.784 38.824C37.0267 38.6107 40.0773 37.8213 42.936 36.456C45.8373 35.0907 48.3973 33.384 50.616 31.336C51.4267 30.568 52.28 29.5867 53.176 28.392C54.072 27.1547 54.904 25.832 55.672 24.424C56.4827 23.016 57.1227 21.6507 57.592 20.328C58.104 18.9627 58.36 17.768 58.36 16.744C58.36 15.6773 58.04 14.824 57.4 14.184C56.8027 13.5013 55.864 13.16 54.584 13.16C53.5173 13.16 52.4507 13.4587 51.384 14.056C50.3173 14.6533 49.3147 15.4 48.376 16.296C47.4373 17.192 46.584 18.1093 45.816 19.048C45.048 19.9867 44.408 20.7973 43.896 21.48C42.0613 24.0827 40.2907 26.9413 38.584 30.056C36.92 33.128 35.32 36.0507 33.784 38.824ZM9.33603 58.472C11.0853 58.472 12.728 58.1307 14.264 57.448C15.8 56.808 17.2293 55.976 18.552 54.952C19.9173 53.928 21.1333 52.8827 22.2 51.816C20.408 51.0907 18.4453 50.408 16.312 49.768C14.1787 49.128 12.1093 48.808 10.104 48.808C8.95203 48.808 7.80003 49 6.64803 49.384C5.49603 49.7253 4.53603 50.2587 3.76803 50.984C3.0427 51.7093 2.68003 52.6693 2.68003 53.864C2.68003 54.9307 3.00003 55.8053 3.64003 56.488C4.3227 57.128 5.17603 57.6187 6.20003 57.96C7.22403 58.3013 8.26936 58.472 9.33603 58.472ZM51.334 57.256C49.926 57.256 48.9447 56.8933 48.39 56.168C47.878 55.4 47.622 54.4827 47.622 53.416C47.622 52.392 47.7927 51.3253 48.134 50.216C48.4753 49.1067 48.838 48.0827 49.222 47.144C49.6487 46.1627 49.99 45.4373 50.246 44.968C51.014 43.6453 51.8673 42.3653 52.806 41.128C53.7873 39.8907 54.8327 38.8027 55.942 37.864C57.0513 36.8827 58.182 36.136 59.334 35.624C60.5287 35.0693 61.7233 34.792 62.918 34.792C64.966 34.792 66.4167 35.3467 67.27 36.456C68.1233 37.5227 68.55 38.6747 68.55 39.912C68.55 40.3387 68.486 40.7867 68.358 41.256C68.1873 41.896 67.974 42.4507 67.718 42.92C67.5047 43.3893 67.2273 43.624 66.886 43.624C66.5873 43.624 66.31 43.4747 66.054 43.176C65.798 42.8773 65.7127 42.5787 65.798 42.28C65.8833 41.9813 65.99 41.6827 66.118 41.384C66.2887 41.0853 66.3953 40.7867 66.438 40.488C66.4807 40.2747 66.502 40.0827 66.502 39.912C66.5447 39.7413 66.566 39.5707 66.566 39.4C66.566 38.248 66.182 37.4587 65.414 37.032C64.6887 36.5627 63.8993 36.328 63.046 36.328C62.0647 36.328 61.0407 36.6053 59.974 37.16C58.95 37.7147 58.054 38.3547 57.286 39.08C56.3473 40.0187 55.4087 41.1067 54.47 42.344C53.5313 43.5813 52.7207 44.84 52.038 46.12C51.9527 46.3333 51.718 46.8453 51.334 47.656C50.9927 48.4667 50.6513 49.384 50.31 50.408C50.0113 51.3893 49.862 52.3067 49.862 53.16C49.862 53.7573 49.99 54.2693 50.246 54.696C50.5447 55.1227 51.0353 55.336 51.718 55.336C52.4433 55.336 53.2753 54.9947 54.214 54.312C55.1953 53.6293 56.1767 52.7973 57.158 51.816C58.182 50.792 59.0993 49.8107 59.91 48.872C60.7207 47.9333 61.318 47.208 61.702 46.696C61.958 46.3547 62.1927 45.992 62.406 45.608C62.662 45.1813 62.918 44.7973 63.174 44.456C63.302 44.2853 63.558 44.2 63.942 44.2C64.2833 44.2 64.6247 44.3067 64.966 44.52C65.35 44.6907 65.4993 44.9467 65.414 45.288C65.2433 45.5867 64.9233 46.248 64.454 47.272C64.0273 48.2533 63.622 49.3413 63.238 50.536C62.854 51.688 62.662 52.712 62.662 53.608C62.662 54.7173 63.0033 55.3573 63.686 55.528C64.1553 55.6133 64.646 55.4427 65.158 55.016C65.7127 54.5893 66.2033 54.0987 66.63 53.544C67.0993 52.9893 67.4407 52.584 67.654 52.328C68.55 51.1333 69.382 49.9173 70.15 48.68C70.9607 47.4 71.7713 46.2053 72.582 45.096C72.838 44.7547 73.1367 44.584 73.478 44.584C74.0753 44.584 74.374 44.904 74.374 45.544C74.374 45.7573 74.0967 46.312 73.542 47.208C72.9873 48.0613 72.3047 49.0427 71.494 50.152C70.726 51.2613 70.0007 52.264 69.318 53.16C68.6353 54.056 67.8673 54.9307 67.014 55.784C66.1607 56.6373 65.0727 57.064 63.75 57.064C62.5127 57.064 61.6593 56.7867 61.19 56.232C60.7633 55.6773 60.55 55.0587 60.55 54.376C60.55 53.7787 60.614 53.16 60.742 52.52C60.87 51.8373 60.998 51.2613 61.126 50.792L60.87 50.6C60.486 51.0693 59.91 51.6667 59.142 52.392C58.374 53.1173 57.5207 53.864 56.582 54.632C55.6433 55.3573 54.7047 55.976 53.766 56.488C52.87 57 52.0593 57.256 51.334 57.256ZM79.7905 57.896C78.9798 57.896 78.2758 57.64 77.6785 57.128C77.1238 56.616 76.8465 55.8053 76.8465 54.696C76.8465 53.8 77.0172 52.8827 77.3585 51.944C77.6998 50.9627 78.0198 50.1947 78.3185 49.64C79.0012 48.2747 79.7265 47.016 80.4945 45.864C81.2625 44.6693 81.8385 43.816 82.2225 43.304C81.4545 43.3467 80.5372 43.1547 79.4705 42.728C78.4465 42.3013 77.7212 41.7467 77.2945 41.064C76.7398 41.8747 75.9505 43.1973 74.9265 45.032C73.9025 46.824 72.6012 48.7227 71.0225 50.728C70.7665 51.0693 70.4678 51.24 70.1265 51.24C69.4865 51.24 69.1665 50.9627 69.1665 50.408C69.1665 50.1947 69.2305 50.0027 69.3585 49.832C69.9985 48.936 70.7878 47.784 71.7265 46.376C72.7078 44.9253 73.6465 43.432 74.5425 41.896C75.4812 40.3173 76.2278 38.9093 76.7825 37.672C76.9532 37.288 77.1238 36.8827 77.2945 36.456C77.5078 36.0293 77.6998 35.624 77.8705 35.24C78.0412 34.9413 78.2758 34.6853 78.5745 34.472C78.8732 34.216 79.2145 34.088 79.5985 34.088C79.9398 34.088 80.2812 34.2373 80.6225 34.536C80.9638 34.792 81.1345 35.0907 81.1345 35.432C81.1345 35.816 80.9852 36.3067 80.6865 36.904C80.4305 37.4587 80.1532 38.0347 79.8545 38.632C79.5558 39.2293 79.4065 39.7627 79.4065 40.232C79.4065 40.616 79.7265 40.872 80.3665 41C81.0065 41.128 81.4758 41.192 81.7745 41.192C82.9265 41.192 83.8865 40.9573 84.6545 40.488C85.4225 40.0187 85.9558 39.784 86.2545 39.784C86.5105 39.784 86.7238 39.8907 86.8945 40.104C87.1078 40.2747 87.2145 40.4667 87.2145 40.68C87.2145 40.9787 87.0865 41.2347 86.8305 41.448C86.2332 42.0027 85.5292 42.792 84.7185 43.816C83.9078 44.84 83.0972 45.9493 82.2865 47.144C81.4758 48.3387 80.7718 49.512 80.1745 50.664C80.0038 51.0907 79.7478 51.688 79.4065 52.456C79.1078 53.224 78.9585 53.9493 78.9585 54.632C78.9585 55.784 79.3638 56.36 80.1745 56.36C80.5158 56.36 80.8998 56.232 81.3265 55.976C81.7958 55.72 82.2438 55.4213 82.6705 55.08C83.6945 54.1413 84.5905 53.224 85.3585 52.328C86.1692 51.3893 86.9798 50.344 87.7905 49.192C88.6012 48.04 89.5398 46.6533 90.6065 45.032C90.7772 44.7333 91.0758 44.584 91.5025 44.584C92.0572 44.584 92.3345 44.84 92.3345 45.352C92.3345 45.608 92.2065 45.9707 91.9505 46.44C91.3532 47.5067 90.5638 48.68 89.5825 49.96C88.6438 51.24 87.6625 52.456 86.6385 53.608C85.6572 54.7173 84.7825 55.5707 84.0145 56.168C82.6492 57.32 81.2412 57.896 79.7905 57.896ZM83.1985 80.872C81.9612 80.872 80.9372 80.5733 80.1265 79.976C79.2732 79.4213 78.7398 78.5467 78.5265 77.352C78.3558 76.1147 78.8252 74.8133 79.9345 73.448C81.0438 72.0827 82.4305 70.7387 84.0945 69.416C85.4172 68.3493 86.8038 67.3467 88.2545 66.408C89.7052 65.512 91.0492 64.68 92.2865 63.912C93.5665 63.1867 94.5905 62.6107 95.3585 62.184C96.9798 61.2027 98.6438 60.1787 100.351 59.112C102.057 58.088 103.7 57.0853 105.279 56.104C105.791 54.568 106.111 53.032 106.239 51.496C106.409 49.9173 106.473 48.3813 106.431 46.888C105.961 47.6133 105.279 48.5733 104.383 49.768C103.529 50.9627 102.505 52.1573 101.311 53.352C100.159 54.5467 98.8998 55.5707 97.5345 56.424C96.1692 57.2347 94.7612 57.64 93.3105 57.64C91.4758 57.64 90.2172 57.1067 89.5345 56.04C88.8518 54.9733 88.5105 53.7147 88.5105 52.264C88.5105 50.984 88.6812 49.6827 89.0225 48.36C89.4065 47.0373 89.8118 45.9707 90.2385 45.16C91.0918 43.4107 92.1585 41.704 93.4385 40.04C94.7612 38.376 96.2332 37.0107 97.8545 35.944C99.5185 34.8773 101.204 34.344 102.911 34.344C104.148 34.344 105.044 34.7067 105.599 35.432C106.196 36.1573 106.495 36.9893 106.495 37.928C106.495 38.2267 106.409 38.696 106.239 39.336C106.068 39.976 105.833 40.6373 105.535 41.32C105.279 42.0027 104.959 42.6 104.575 43.112C104.191 43.5813 103.764 43.816 103.295 43.816C102.996 43.816 102.74 43.7307 102.527 43.56C102.313 43.3467 102.207 43.1333 102.207 42.92C102.207 42.792 102.377 42.4933 102.719 42.024C103.06 41.5547 103.401 40.9787 103.743 40.296C104.084 39.6133 104.255 38.888 104.255 38.12C104.255 37.6507 104.127 37.224 103.871 36.84C103.657 36.456 103.231 36.264 102.591 36.264C101.268 36.264 99.9452 36.7333 98.6225 37.672C97.3425 38.6107 96.1692 39.784 95.1025 41.192C94.0358 42.6 93.1398 44.0507 92.4145 45.544C92.1158 46.184 91.7745 47.144 91.3905 48.424C91.0065 49.704 90.8145 50.9413 90.8145 52.136C90.8145 53.16 91.0278 54.0347 91.4545 54.76C91.8812 55.4427 92.6278 55.784 93.6945 55.784C94.6332 55.784 95.6358 55.4213 96.7025 54.696C97.8118 53.9707 98.9212 53.0533 100.031 51.944C101.14 50.792 102.143 49.6187 103.039 48.424C103.977 47.1867 104.724 46.0773 105.279 45.096C105.876 44.1147 106.196 43.4107 106.239 42.984C106.281 42.7707 106.409 42.536 106.623 42.28C106.836 42.024 107.092 41.896 107.391 41.896C107.732 41.896 107.967 42.0027 108.095 42.216C108.223 42.4293 108.308 42.6427 108.351 42.856C108.649 44.008 108.799 45.352 108.799 46.888C108.799 48.1253 108.713 49.384 108.543 50.664C108.415 51.944 108.265 53.096 108.095 54.12C109.545 52.9253 110.868 51.496 112.063 49.832C113.3 48.1253 114.409 46.5253 115.391 45.032C115.604 44.6907 115.86 44.52 116.159 44.52C116.372 44.52 116.564 44.6053 116.735 44.776C116.948 44.9467 117.055 45.16 117.055 45.416C117.055 45.5867 116.991 45.8 116.863 46.056C115.54 48.1893 114.132 50.2373 112.639 52.2C111.188 54.12 109.332 55.8267 107.071 57.32C105.876 60.7333 104.233 63.9547 102.143 66.984C100.095 70.056 97.8118 72.7013 95.2945 74.92C92.8198 77.1813 90.3238 78.824 87.8065 79.848C86.9958 80.1893 86.2065 80.4453 85.4385 80.616C84.6278 80.7867 83.8812 80.872 83.1985 80.872ZM83.1985 79.272C83.7105 79.272 84.2652 79.1867 84.8625 79.016C85.4598 78.8453 86.0785 78.632 86.7185 78.376C89.2785 77.224 91.6038 75.7093 93.6945 73.832C95.8278 71.9973 97.6838 69.9493 99.2625 67.688C100.884 65.4267 102.185 63.1653 103.167 60.904C103.252 60.648 103.359 60.392 103.487 60.136C103.615 59.88 103.743 59.624 103.871 59.368C102.633 60.0507 101.439 60.776 100.287 61.544C99.1345 62.3547 97.9398 63.1013 96.7025 63.784C96.0198 64.168 95.0172 64.744 93.6945 65.512C92.3718 66.28 90.9425 67.1333 89.4065 68.072C87.8705 69.0533 86.4412 70.0773 85.1185 71.144C83.8385 72.1253 82.7718 73.1067 81.9185 74.088C81.0652 75.0693 80.6385 75.9867 80.6385 76.84C80.6385 77.6933 80.8945 78.312 81.4065 78.696C81.8758 79.08 82.4732 79.272 83.1985 79.272ZM119.726 57.64C117.507 57.64 115.95 57 115.054 55.72C114.201 54.3973 113.774 52.8613 113.774 51.112C113.774 49.832 114.094 48.3173 114.734 46.568C115.374 44.776 116.249 43.0267 117.358 41.32C118.51 39.6133 119.833 38.2053 121.326 37.096C122.819 35.944 124.419 35.368 126.126 35.368C127.235 35.368 128.11 35.688 128.75 36.328C129.433 36.9253 129.774 37.6933 129.774 38.632C129.774 40.424 129.198 42.152 128.046 43.816C126.894 45.48 125.401 46.8453 123.566 47.912C121.731 48.9787 119.769 49.512 117.678 49.512C117.422 49.512 117.166 49.512 116.91 49.512C116.654 49.4693 116.398 49.4267 116.142 49.384C116.014 49.9387 115.95 50.5787 115.95 51.304C115.95 52.4133 116.206 53.4373 116.718 54.376C117.273 55.3147 118.318 55.784 119.854 55.784C121.134 55.784 122.371 55.464 123.566 54.824C124.761 54.184 125.763 53.4587 126.574 52.648C127.385 51.8373 128.067 51.112 128.622 50.472C129.177 49.832 129.753 49.1067 130.35 48.296C130.947 47.4427 131.694 46.3333 132.59 44.968C132.761 44.6693 133.017 44.52 133.358 44.52C133.955 44.52 134.254 44.84 134.254 45.48C134.254 45.6933 134.211 45.864 134.126 45.992C132.974 47.9547 131.694 49.832 130.286 51.624C128.878 53.3733 127.299 54.824 125.55 55.976C123.843 57.0853 121.902 57.64 119.726 57.64ZM118.126 47.528C119.747 47.528 121.262 47.1013 122.67 46.248C124.121 45.352 125.294 44.2427 126.19 42.92C127.129 41.5973 127.598 40.2533 127.598 38.888C127.598 38.4187 127.47 38.0347 127.214 37.736C127.001 37.4373 126.617 37.288 126.062 37.288C124.953 37.288 123.886 37.672 122.862 38.44C121.838 39.1653 120.899 40.104 120.046 41.256C119.235 42.3653 118.531 43.4747 117.934 44.584C117.379 45.6933 116.974 46.632 116.718 47.4C116.931 47.4427 117.145 47.4853 117.358 47.528C117.614 47.528 117.87 47.528 118.126 47.528ZM136.914 57.64C134.695 57.64 133.138 57 132.242 55.72C131.388 54.3973 130.962 52.8613 130.962 51.112C130.962 49.832 131.282 48.3173 131.922 46.568C132.562 44.776 133.436 43.0267 134.546 41.32C135.698 39.6133 137.02 38.2053 138.514 37.096C140.007 35.944 141.607 35.368 143.314 35.368C144.423 35.368 145.298 35.688 145.938 36.328C146.62 36.9253 146.962 37.6933 146.962 38.632C146.962 40.424 146.386 42.152 145.234 43.816C144.082 45.48 142.588 46.8453 140.754 47.912C138.919 48.9787 136.956 49.512 134.866 49.512C134.61 49.512 134.354 49.512 134.098 49.512C133.842 49.4693 133.586 49.4267 133.33 49.384C133.202 49.9387 133.138 50.5787 133.138 51.304C133.138 52.4133 133.394 53.4373 133.906 54.376C134.46 55.3147 135.506 55.784 137.042 55.784C138.322 55.784 139.559 55.464 140.754 54.824C141.948 54.184 142.951 53.4587 143.762 52.648C144.572 51.8373 145.255 51.112 145.81 50.472C146.364 49.832 146.94 49.1067 147.538 48.296C148.135 47.4427 148.882 46.3333 149.778 44.968C149.948 44.6693 150.204 44.52 150.546 44.52C151.143 44.52 151.442 44.84 151.442 45.48C151.442 45.6933 151.399 45.864 151.314 45.992C150.162 47.9547 148.882 49.832 147.474 51.624C146.066 53.3733 144.487 54.824 142.738 55.976C141.031 57.0853 139.09 57.64 136.914 57.64ZM135.314 47.528C136.935 47.528 138.45 47.1013 139.858 46.248C141.308 45.352 142.482 44.2427 143.378 42.92C144.316 41.5973 144.786 40.2533 144.786 38.888C144.786 38.4187 144.658 38.0347 144.402 37.736C144.188 37.4373 143.804 37.288 143.25 37.288C142.14 37.288 141.074 37.672 140.05 38.44C139.026 39.1653 138.087 40.104 137.234 41.256C136.423 42.3653 135.719 43.4747 135.122 44.584C134.567 45.6933 134.162 46.632 133.906 47.4C134.119 47.4427 134.332 47.4853 134.546 47.528C134.802 47.528 135.058 47.528 135.314 47.528ZM154.101 57.64C151.882 57.64 150.325 57 149.429 55.72C148.576 54.3973 148.149 52.8613 148.149 51.112C148.149 49.832 148.469 48.3173 149.109 46.568C149.749 44.776 150.624 43.0267 151.733 41.32C152.885 39.6133 154.208 38.2053 155.701 37.096C157.194 35.944 158.794 35.368 160.501 35.368C161.61 35.368 162.485 35.688 163.125 36.328C163.808 36.9253 164.149 37.6933 164.149 38.632C164.149 40.424 163.573 42.152 162.421 43.816C161.269 45.48 159.776 46.8453 157.941 47.912C156.106 48.9787 154.144 49.512 152.053 49.512C151.797 49.512 151.541 49.512 151.285 49.512C151.029 49.4693 150.773 49.4267 150.517 49.384C150.389 49.9387 150.325 50.5787 150.325 51.304C150.325 52.4133 150.581 53.4373 151.093 54.376C151.648 55.3147 152.693 55.784 154.229 55.784C155.509 55.784 156.746 55.464 157.941 54.824C159.136 54.184 160.138 53.4587 160.949 52.648C161.76 51.8373 162.442 51.112 162.997 50.472C163.552 49.832 164.128 49.1067 164.725 48.296C165.322 47.4427 166.069 46.3333 166.965 44.968C167.136 44.6693 167.392 44.52 167.733 44.52C168.33 44.52 168.629 44.84 168.629 45.48C168.629 45.6933 168.586 45.864 168.501 45.992C167.349 47.9547 166.069 49.832 164.661 51.624C163.253 53.3733 161.674 54.824 159.925 55.976C158.218 57.0853 156.277 57.64 154.101 57.64ZM152.501 47.528C154.122 47.528 155.637 47.1013 157.045 46.248C158.496 45.352 159.669 44.2427 160.565 42.92C161.504 41.5973 161.973 40.2533 161.973 38.888C161.973 38.4187 161.845 38.0347 161.589 37.736C161.376 37.4373 160.992 37.288 160.437 37.288C159.328 37.288 158.261 37.672 157.237 38.44C156.213 39.1653 155.274 40.104 154.421 41.256C153.61 42.3653 152.906 43.4747 152.309 44.584C151.754 45.6933 151.349 46.632 151.093 47.4C151.306 47.4427 151.52 47.4853 151.733 47.528C151.989 47.528 152.245 47.528 152.501 47.528Z" fill="#FAFAFA"/>
<path d="M75.5 66H5.5C4.11929 66 3 66.6716 3 67.5C3 68.3284 4.11929 69 5.5 69H75.5C76.8807 69 78 68.3284 78 67.5C78 66.6716 76.8807 66 75.5 66Z" fill="#FAFAFA"/>
<path d="M239.5 66H109.5C108.119 66 107 66.6716 107 67.5C107 68.3284 108.119 69 109.5 69H239.5C240.881 69 242 68.3284 242 67.5C242 66.6716 240.881 66 239.5 66Z" fill="#FAFAFA"/>
</svg>
