<svg width="20" height="20" viewBox="0 0 20 20" fill="none" xmlns="http://www.w3.org/2000/svg">
<path d="M10 9.96875C8.625 9.96875 7.5 9.53125 6.625 8.65625C5.75 7.78125 5.3125 6.65625 5.3125 5.28125C5.3125 3.90625 5.75 2.78125 6.625 1.90625C7.5 1.03125 8.625 0.59375 10 0.59375C11.375 0.59375 12.5 1.03125 13.375 1.90625C14.25 2.78125 14.6875 3.90625 14.6875 5.28125C14.6875 6.65625 14.25 7.78125 13.375 8.65625C12.5 9.53125 11.375 9.96875 10 9.96875ZM0 20V17.0625C0 16.2708 0.197917 15.5937 0.59375 15.0312C0.989583 14.4687 1.5 14.0417 2.125 13.75C3.52083 13.125 4.85938 12.6562 6.14063 12.3438C7.42188 12.0312 8.70833 11.875 10 11.875C11.2917 11.875 12.5729 12.0365 13.8438 12.3594C15.1146 12.6823 16.4479 13.1458 17.8438 13.75C18.4896 14.0417 19.0104 14.4687 19.4062 15.0312C19.8021 15.5937 20 16.2708 20 17.0625V20H0ZM1.875 18.125H18.125V17.0625C18.125 16.7292 18.026 16.4115 17.8281 16.1094C17.6302 15.8073 17.3854 15.5833 17.0938 15.4375C15.7604 14.7917 14.5417 14.349 13.4375 14.1094C12.3333 13.8698 11.1875 13.75 10 13.75C8.8125 13.75 7.65625 13.8698 6.53125 14.1094C5.40625 14.349 4.1875 14.7917 2.875 15.4375C2.58333 15.5833 2.34375 15.8073 2.15625 16.1094C1.96875 16.4115 1.875 16.7292 1.875 17.0625V18.125ZM10 8.09375C10.8125 8.09375 11.4844 7.82812 12.0156 7.29687C12.5469 6.76562 12.8125 6.09375 12.8125 5.28125C12.8125 4.46875 12.5469 3.79688 12.0156 3.26563C11.4844 2.73438 10.8125 2.46875 10 2.46875C9.1875 2.46875 8.51562 2.73438 7.98438 3.26563C7.45312 3.79688 7.1875 4.46875 7.1875 5.28125C7.1875 6.09375 7.45312 6.76562 7.98438 7.29687C8.51562 7.82812 9.1875 8.09375 10 8.09375Z" fill="#FAFAFA"/>
</svg>
